<?xml version="1.0" encoding="utf-8"?>
<!-- Generator: Adobe Illustrator 26.3.1, SVG Export Plug-In . SVG Version: 6.00 Build 0)  -->
<svg version="1.1" id="Layer_1" xmlns="http://www.w3.org/2000/svg" xmlns:xlink="http://www.w3.org/1999/xlink" x="0px" y="0px"
	 viewBox="0 0 197.6 77.3" style="enable-background:new 0 0 197.6 77.3;" xml:space="preserve">
<style type="text/css">
	.st0{fill:#404041;}
	.st1{fill:#213F7D;}
	.st2{fill:#1D529B;}
	.st3{fill:#006A41;}
</style>
<g>
	<rect x="17" y="24.2" class="st0" width="4.7" height="4.7"/>
	<rect x="9.8" y="24.2" class="st0" width="4.7" height="4.7"/>
	<path class="st0" d="M20.7,60.4h-9.8c-5.4,0-9.8-4.4-9.8-9.8v-9.8c0-5.5,4.5-9.9,9.9-9.9h9.7c5.4,0,9.8,4.4,9.8,9.8v10
		C30.4,56,26.1,60.4,20.7,60.4z M25.9,51.5V39.8c0-2.4-1.9-4.3-4.3-4.3H9.8c-2.4,0-4.3,1.9-4.3,4.3v11.9c0,2.3,1.8,4.1,4.1,4.1h12
		C24,55.8,25.9,53.9,25.9,51.5z"/>
	<g>
		<rect x="124.3" y="24.2" class="st0" width="4.7" height="4.7"/>
		<rect x="83.2" y="24.2" class="st0" width="4.7" height="4.7"/>
		<rect x="40.5" y="24.2" class="st0" width="4.7" height="4.7"/>
		<path class="st0" d="M124.3,30.9v22c0,1.6-1.3,2.9-2.8,2.9H113c-1.6,0-2.8-1.3-2.8-2.9V24.1c-1.6,0-3.1,0-4.7,0v28.7
			c0,4.2,3.4,7.6,7.6,7.6h8.2c4.2,0,7.6-3.4,7.6-7.6V30.9C127.4,30.9,125.8,30.9,124.3,30.9z"/>
		<path class="st0" d="M50,58.4L50,58.4c1.5,1.5,3.6,2,4.5,2h0.7h38.3h0c3.7,0,6.7-3,6.7-6.7v-0.3v-15c0-4.2-3.4-7.5-7.5-7.5H78.1
			c-4.2,0-7.5,3.4-7.5,7.5v5.3c0,4.2,3.4,7.5,7.5,7.5h14.5c1,0,2-0.2,2.8-0.6c0,0,0.1,0,0.1,0v2.3v0.1c0,1.5-1.2,2.7-2.7,2.7h0H55.2
			c-1.6,0-2.9-1.3-2.9-2.9V38.3c0-4-3.2-7.4-7.2-7.4h-4.6v4.6h4.4c1.5,0,2.7,1.2,2.7,2.7l0,14.7c0,1.7-1.2,2.9-2.9,2.9h-8.2v4.5h6.9
			c0,0,1.5,0,1.6,0C47.9,60.4,50,58.4,50,58.4z M95.5,43.8c0,1.6-1.3,2.8-2.8,2.8H78.1c-1.6,0-2.8-1.3-2.8-2.8v-5.3
			c0-1.6,1.3-2.8,2.8-2.8h14.5c1.6,0,2.8,1.3,2.8,2.8V43.8z"/>
	</g>
	<g id="Window_3_">
		<g>
			<g>
				<polygon class="st1" points="146.3,32.2 146.3,10.4 135.9,0 135.9,42.5 				"/>
				<polygon class="st2" points="135.9,0 146.3,10.4 168.1,10.4 178.5,0 				"/>
			</g>
			<g>
				<polygon class="st1" points="186,50 164.2,50 153.8,60.4 196.3,60.4 				"/>
				<polygon class="st2" points="186,28.3 186,50 196.3,60.4 196.3,17.9 				"/>
			</g>
			<polygon class="st3" points="196.3,0 185.7,0 175.3,10.4 186,10.4 186,21.1 196.3,10.8 			"/>
			<polygon class="st3" points="157.1,39.3 146.3,39.3 136,49.6 146.7,49.6 146.7,60.4 157.1,50 			"/>
		</g>
	</g>
	<g>
		<path class="st0" d="M4.5,69.8c0.4,0.3,0.7,0.7,1,1.2c0.2,0.5,0.3,1.2,0.3,2v1.7H1.1v-1.2h3.3v-0.4c0-0.9-0.2-1.5-0.5-1.9
			c-0.3-0.4-0.7-0.6-1.2-0.6H1.6l-0.1-1.1c0.2,0,0.5-0.1,0.7-0.1c0.3,0,0.5-0.1,0.8-0.1C3.6,69.4,4.1,69.6,4.5,69.8z"/>
		<path class="st0" d="M10.1,69.5c0.5,0.1,0.8,0.1,1.1,0.2v4.2c0,0.6,0,1.1-0.1,1.6c-0.1,0.5-0.3,0.9-0.6,1.3
			c-0.3,0.4-0.8,0.6-1.5,0.6c-0.4,0-1-0.1-1.8-0.2v-1.2c0.8,0.1,1.4,0.2,1.7,0.2c0.2,0,0.4,0,0.5-0.1c0.1-0.1,0.2-0.2,0.3-0.4
			c0.1-0.2,0.1-0.4,0.1-0.8H8.6c-1.4,0-2.2-0.8-2.2-2.4c0-0.8,0.1-1.4,0.3-1.9c0.2-0.4,0.4-0.7,0.8-0.9c0.3-0.1,0.8-0.2,1.3-0.2
			C9.2,69.4,9.7,69.5,10.1,69.5z M8.1,73.2c0.2,0.2,0.5,0.4,0.9,0.4h0.9v-2.8c-0.3,0-0.5-0.1-0.8-0.1c-0.3,0-0.5,0-0.7,0.1
			C8.2,70.9,8.1,71,8,71.3c-0.1,0.2-0.1,0.6-0.1,1C7.8,72.6,7.9,72.9,8.1,73.2z"/>
		<path class="st0" d="M17.9,73.5v1.2h-5.8v-1.2h3.3v-0.4c0-0.9-0.2-1.5-0.5-1.9c-0.3-0.4-0.7-0.6-1.2-0.6h-1.1l-0.1-1.1
			c0.2,0,0.5-0.1,0.7-0.1c0.3,0,0.5-0.1,0.8-0.1c0.6,0,1,0.1,1.5,0.4c0.4,0.3,0.7,0.7,1,1.2c0.2,0.5,0.3,1.2,0.3,2v0.5H17.9z"/>
		<path class="st0" d="M24.3,73.5v1.2h-6.4v-1.2h3.9v-1.9c0-0.3-0.1-0.5-0.2-0.7c-0.1-0.1-0.3-0.2-0.7-0.2c-0.6,0-1.2,0-1.7,0.1
			l-0.5,0l0-0.9c0.4-0.1,0.8-0.2,1.3-0.2s0.9-0.1,1.3-0.1c0.7,0,1.1,0.1,1.4,0.4c0.3,0.3,0.4,0.7,0.5,1.3v2.3H24.3z"/>
		<path class="st0" d="M27,67.6v7.2h-2.7v-1.2h1.3v-5.9H27z"/>
		<path class="st0" d="M28.6,67.6H30v7.2h-1.4V67.6z"/>
		<path class="st0" d="M37.2,74.8h-1.7c0,0.8-0.2,1.4-0.4,1.9c-0.3,0.4-0.7,0.7-1.3,0.7c-0.1,0-0.3,0-0.8,0V76l0.4,0
			c0.3,0,0.4-0.1,0.6-0.3c0.1-0.2,0.2-0.5,0.2-0.8v-5.3h1.4v3.9h1.7V74.8z"/>
		<path class="st0" d="M41.7,73.5v1.2h-4.5v-1.2h1.6v-3.9h1.4v3.9H41.7z M38.8,75.6h1.3v1.3h-1.3V75.6z"/>
		<path class="st0" d="M47.4,73.5v1.2h-5.7v-1.2h1.5c-0.2-0.4-0.3-0.9-0.3-1.5c0-0.6,0.1-1.1,0.4-1.5c0.3-0.4,0.6-0.6,1-0.8
			c0.4-0.2,0.8-0.2,1.1-0.2c0.3,0,0.6,0,0.9,0.1c0.3,0.1,0.6,0.2,0.9,0.3l-0.1,1.3c-0.2-0.1-0.5-0.2-0.8-0.3
			c-0.3-0.1-0.6-0.1-0.8-0.1c-0.3,0-0.6,0.1-0.8,0.3c-0.2,0.2-0.4,0.5-0.4,1c0,0.3,0.1,0.6,0.2,0.8c0.1,0.2,0.2,0.4,0.4,0.6H47.4z"
			/>
		<path class="st0" d="M56.3,73.5v1.2h-3.7c-0.7,0-1.2-0.1-1.6-0.2c-0.4-0.1-0.7-0.4-0.9-0.8c-0.2-0.4-0.3-0.9-0.3-1.7
			c0-0.7,0.1-1.2,0.3-1.6s0.5-0.6,0.9-0.8c0.4-0.1,1-0.2,1.7-0.2c0.4,0,0.9,0,1.4,0c0.5,0,0.9,0.1,1.1,0.1v3.8H56.3z M51.4,73
			c0.1,0.2,0.3,0.3,0.5,0.4c0.2,0.1,0.5,0.1,0.9,0.1h1.1v-2.7c-0.3,0-0.7-0.1-1.1-0.1c-0.4,0-0.7,0-0.9,0.1
			c-0.2,0.1-0.4,0.2-0.5,0.4c-0.1,0.2-0.1,0.5-0.1,0.8C51.2,72.5,51.3,72.8,51.4,73z M51.5,67.4h1.1v1.3h-1.1V67.4z M53.1,67.4h1.1
			v1.3h-1.1V67.4z"/>
		<path class="st0" d="M59.3,69.7v5.1h-3v-1.2h1.6v-3.9H59.3z M57.3,75.6h1.1v1.3h-1.1V75.6z M58.8,75.6h1.1v1.3h-1.1V75.6z"/>
		<path class="st0" d="M65.2,74.8h-1.7c0,0.8-0.2,1.4-0.4,1.9c-0.3,0.4-0.7,0.7-1.3,0.7c-0.1,0-0.3,0-0.8,0V76l0.4,0
			c0.3,0,0.4-0.1,0.6-0.3c0.1-0.2,0.2-0.5,0.2-0.8v-5.3h1.4v3.9h1.7V74.8z"/>
		<path class="st0" d="M74.1,73.5v1.2h-9v-1.2h1.4v-3.9h1.4v1.6c0.3-0.4,0.6-0.7,0.8-0.9c0.3-0.2,0.6-0.4,0.9-0.6
			c0.3-0.1,0.7-0.2,1.2-0.2c0.9,0,1.5,0.3,1.9,0.8c0.4,0.5,0.5,1.1,0.5,1.9v1.3H74.1z M69.1,71.5c-0.5,0.5-0.9,1-1.2,1.6v0.5h3.9
			v-1.1c0-0.5-0.1-0.9-0.3-1.2c-0.2-0.3-0.6-0.5-1-0.5C70,70.8,69.6,71,69.1,71.5z"/>
		<path class="st0" d="M81.8,73.5v1.2h-0.6c-0.1,0-0.2,0-0.3-0.1c-0.1-0.1-0.2-0.2-0.2-0.3v0.4h-6.6v-1.2h1.6
			c-0.1-0.5-0.1-0.9-0.1-1.3c0-0.4,0-0.8,0.1-1.2s0.2-0.8,0.3-1.1c0.2-0.1,0.5-0.2,0.8-0.2c0.4-0.1,0.8-0.1,1.2-0.1
			c0.7,0,1.3,0.1,1.7,0.3c0.4,0.2,0.6,0.5,0.8,0.9c0.1,0.4,0.2,0.9,0.2,1.5v0.9c0,0.1,0.1,0.2,0.2,0.3c0.1,0.1,0.2,0.1,0.3,0.1H81.8
			z M77,72.9c0,0.2,0.1,0.4,0.1,0.6h2.2v-1.3c0-0.5-0.1-0.8-0.3-1.1c-0.2-0.2-0.6-0.3-1.1-0.3c-0.3,0-0.5,0-0.8,0.1
			c-0.1,0.5-0.1,1-0.1,1.3C77,72.5,77,72.7,77,72.9z"/>
		<path class="st0" d="M84.5,67.6v7.2h-2.7v-1.2h1.3v-5.9H84.5z"/>
		<path class="st0" d="M86.1,67.6h1.4v7.2h-1.4V67.6z"/>
		<path class="st0" d="M94.8,69.6c0.5,0,0.9,0.1,1.1,0.1v5.1h-2.6c-0.7,0-1.2-0.1-1.6-0.2c-0.4-0.1-0.7-0.4-0.9-0.8
			c-0.2-0.4-0.3-0.9-0.3-1.7c0-0.7,0.1-1.2,0.3-1.6c0.2-0.4,0.5-0.6,0.9-0.8c0.4-0.1,1-0.2,1.7-0.2C93.7,69.6,94.2,69.6,94.8,69.6z
			 M92.1,73c0.1,0.2,0.3,0.3,0.5,0.4c0.2,0.1,0.5,0.1,0.9,0.1h1.1v-2.7c-0.3,0-0.7-0.1-1.1-0.1c-0.4,0-0.7,0-0.9,0.1
			c-0.2,0.1-0.4,0.2-0.5,0.4c-0.1,0.2-0.1,0.5-0.1,0.8C91.9,72.5,92,72.8,92.1,73z M92.1,67.4h1.1v1.3h-1.1V67.4z M93.7,67.4h1.1
			v1.3h-1.1V67.4z"/>
		<path class="st0" d="M96.7,77.3V76l0.4,0c0.3,0,0.4-0.1,0.6-0.3c0.1-0.2,0.2-0.5,0.2-0.8v-5.3h1.4v5.1c0,0.8-0.1,1.5-0.4,1.9
			s-0.7,0.7-1.3,0.7C97.4,77.3,97.2,77.3,96.7,77.3z"/>
		<path class="st0" d="M103,73.5v1.2h-2.4v-7.2h1.4v5.9H103z"/>
		<path class="st0" d="M109.4,73.5v1.2H103v-1.2h3.9v-1.9c0-0.3-0.1-0.5-0.2-0.7c-0.1-0.1-0.3-0.2-0.7-0.2c-0.6,0-1.2,0-1.7,0.1
			l-0.5,0l0-0.9c0.4-0.1,0.8-0.2,1.3-0.2c0.5-0.1,0.9-0.1,1.3-0.1c0.7,0,1.1,0.1,1.4,0.4c0.3,0.3,0.4,0.7,0.5,1.3v2.3H109.4z
			 M105.6,75.6h1.3v1.3h-1.3V75.6z"/>
		<path class="st0" d="M113.9,73.5v1.2h-4.5v-1.2h1.6v-3.9h1.4v3.9H113.9z M110.3,67.4h1.1v1.3h-1.1V67.4z M111.9,67.4h1.1v1.3h-1.1
			V67.4z"/>
		<path class="st0" d="M117.7,73.5v1.2h-3.8v-1.2h1.3v-5.9h1.4v5.9H117.7z"/>
		<path class="st0" d="M120.4,67.6v7.2h-2.7v-1.2h1.3v-5.9H120.4z"/>
		<path class="st0" d="M129.8,73.5v1.2h-3.7c-0.7,0-1.2-0.1-1.6-0.2c-0.4-0.1-0.7-0.4-0.9-0.8c-0.2-0.4-0.3-0.9-0.3-1.7
			c0-0.7,0.1-1.2,0.3-1.6c0.2-0.4,0.5-0.6,0.9-0.8c0.4-0.1,1-0.2,1.7-0.2c0.4,0,0.9,0,1.4,0c0.5,0,0.9,0.1,1.1,0.1v3.8H129.8z
			 M124.9,73c0.1,0.2,0.3,0.3,0.5,0.4c0.2,0.1,0.5,0.1,0.9,0.1h1.1v-2.7c-0.3,0-0.7-0.1-1.1-0.1c-0.4,0-0.7,0-0.9,0.1
			c-0.2,0.1-0.4,0.2-0.5,0.4c-0.1,0.2-0.1,0.5-0.1,0.8C124.7,72.5,124.7,72.8,124.9,73z M124.9,67.4h1.1v1.3h-1.1V67.4z M126.5,67.4
			h1.1v1.3h-1.1V67.4z"/>
		<path class="st0" d="M134.3,73.5v1.2h-4.5v-1.2h1.6v-3.9h1.4v3.9H134.3z M130.7,75.6h1.1v1.3h-1.1V75.6z M132.3,75.6h1.1v1.3h-1.1
			V75.6z"/>
		<path class="st0" d="M139.9,69.9c0.4,0.2,0.6,0.5,0.8,0.9c0.1,0.4,0.2,0.9,0.2,1.5v2.6h-6.6v-1.2h1.6c-0.1-0.5-0.1-0.9-0.1-1.3
			c0-0.4,0-0.8,0.1-1.2c0.1-0.4,0.2-0.8,0.3-1.1c0.2-0.1,0.5-0.2,0.8-0.2c0.4-0.1,0.8-0.1,1.2-0.1C138.9,69.6,139.5,69.7,139.9,69.9
			z M137.2,72.9c0,0.2,0.1,0.4,0.1,0.6h2.2v-1.3c0-0.5-0.1-0.8-0.3-1.1c-0.2-0.2-0.6-0.3-1.1-0.3c-0.3,0-0.5,0-0.8,0.1
			c-0.1,0.5-0.1,1-0.1,1.3C137.1,72.5,137.2,72.7,137.2,72.9z"/>
		<path class="st0" d="M147.8,74.8h-1.3c-0.2,1.7-0.9,2.5-2.2,2.5c-0.4,0-1-0.1-1.8-0.2v-1.2c0.8,0.1,1.4,0.2,1.7,0.2
			c0.2,0,0.4,0,0.5-0.1c0.1-0.1,0.2-0.2,0.3-0.4c0.1-0.2,0.1-0.4,0.1-0.8h-1.2c-1.4,0-2.2-0.8-2.2-2.4c0-0.8,0.1-1.4,0.3-1.9
			c0.2-0.4,0.4-0.7,0.8-0.9c0.3-0.1,0.8-0.2,1.3-0.2c0.4,0,0.8,0,1.3,0.1c0.5,0.1,0.8,0.1,1.1,0.2v3.8h1.3V74.8z M143.3,73.2
			c0.2,0.2,0.5,0.4,0.9,0.4h0.9v-2.8c-0.3,0-0.5-0.1-0.8-0.1c-0.3,0-0.5,0-0.7,0.1c-0.2,0.1-0.3,0.2-0.4,0.5c-0.1,0.2-0.1,0.6-0.1,1
			C143.1,72.6,143.2,72.9,143.3,73.2z"/>
		<path class="st0" d="M154.6,73.5v1.2h-6.8v-1.2h1.1c-0.1-0.4-0.2-0.9-0.2-1.4c0-0.6,0.1-1.1,0.3-1.5c0.2-0.4,0.5-0.6,0.9-0.8
			c0.4-0.1,0.9-0.2,1.6-0.2c0.6,0,1.1,0,1.5,0.1l0.5,0.1v3.7H154.6z M150.2,67.4h1.1v1.3h-1.1V67.4z M150.2,73
			c0,0.2,0.1,0.3,0.1,0.5h1.9v-2.6c-0.3,0-0.5,0-0.7,0c-0.4,0-0.7,0-0.8,0.1c-0.2,0.1-0.3,0.2-0.4,0.4c-0.1,0.2-0.1,0.5-0.1,0.9
			C150.2,72.6,150.2,72.8,150.2,73z M151.7,67.4h1.1v1.3h-1.1V67.4z"/>
		<path class="st0" d="M157.3,67.6v7.2h-2.7v-1.2h1.3v-5.9H157.3z"/>
		<path class="st0" d="M158.9,67.6h1.4v7.2h-1.4V67.6z"/>
		<path class="st0" d="M169.8,73.5v1.2h-3.7c-0.7,0-1.2-0.1-1.6-0.2c-0.4-0.1-0.7-0.4-0.9-0.8c-0.2-0.4-0.3-0.9-0.3-1.7
			c0-0.7,0.1-1.2,0.3-1.6s0.5-0.6,0.9-0.8c0.4-0.1,1-0.2,1.7-0.2c0.4,0,0.9,0,1.4,0c0.5,0,0.9,0.1,1.1,0.1v3.8H169.8z M164.8,73
			c0.1,0.2,0.3,0.3,0.5,0.4c0.2,0.1,0.5,0.1,0.9,0.1h1.1v-2.7c-0.3,0-0.7-0.1-1.1-0.1c-0.4,0-0.7,0-0.9,0.1
			c-0.2,0.1-0.4,0.2-0.5,0.4c-0.1,0.2-0.1,0.5-0.1,0.8C164.7,72.5,164.7,72.8,164.8,73z M164.9,67.4h1.1v1.3h-1.1V67.4z M166.5,67.4
			h1.1v1.3h-1.1V67.4z"/>
		<path class="st0" d="M178.7,73.5v1.2h-9v-1.2h1.4v-3.9h1.4v1.6c0.3-0.4,0.6-0.7,0.8-0.9c0.3-0.2,0.6-0.4,0.9-0.6
			c0.3-0.1,0.7-0.2,1.2-0.2c0.9,0,1.5,0.3,1.9,0.8c0.4,0.5,0.5,1.1,0.5,1.9v1.3H178.7z M173.7,71.5c-0.5,0.5-0.9,1-1.2,1.6v0.5h3.9
			v-1.1c0-0.5-0.1-0.9-0.3-1.2c-0.2-0.3-0.6-0.5-1-0.5C174.6,70.8,174.2,71,173.7,71.5z"/>
		<path class="st0" d="M183.3,73.5v1.2h-4.5v-1.2h1.6v-3.9h1.4v3.9H183.3z M180.3,67.4h1.3v1.3h-1.3V67.4z"/>
		<path class="st0" d="M191,73.5v1.2h-0.6c-0.1,0-0.2,0-0.3-0.1c-0.1-0.1-0.2-0.2-0.2-0.3v0.4h-6.6v-1.2h1.6
			c-0.1-0.5-0.1-0.9-0.1-1.3c0-0.4,0-0.8,0.1-1.2s0.2-0.8,0.3-1.1c0.2-0.1,0.5-0.2,0.8-0.2c0.4-0.1,0.8-0.1,1.2-0.1
			c0.7,0,1.3,0.1,1.7,0.3s0.6,0.5,0.8,0.9c0.1,0.4,0.2,0.9,0.2,1.5v0.9c0,0.1,0.1,0.2,0.2,0.3c0.1,0.1,0.2,0.1,0.3,0.1H191z
			 M186.1,72.9c0,0.2,0.1,0.4,0.1,0.6h2.2v-1.3c0-0.5-0.1-0.8-0.3-1.1c-0.2-0.2-0.6-0.3-1.1-0.3c-0.3,0-0.5,0-0.8,0.1
			c-0.1,0.5-0.1,1-0.1,1.3C186.1,72.5,186.1,72.7,186.1,72.9z"/>
		<path class="st0" d="M193.6,67.6v7.2H191v-1.2h1.3v-5.9H193.6z"/>
		<path class="st0" d="M195.2,67.6h1.4v7.2h-1.4V67.6z"/>
	</g>
</g>
</svg>
